<svg version="1.1" id="Layer_1" xmlns="http://www.w3.org/2000/svg" xmlns:xlink="http://www.w3.org/1999/xlink" x="0px" y="0px"
	 width="100%" viewBox="0 0 500 500" enable-background="new 0 0 500 500" xml:space="preserve">
<path fill="#000001" opacity="1.000000" stroke="none" 
	d="
M229.000000,501.000000 
	C152.666687,501.000000 76.833366,501.000000 1.000041,501.000000 
	C1.000027,334.333405 1.000027,167.666779 1.000014,1.000130 
	C167.666565,1.000087 334.333130,1.000087 500.999756,1.000043 
	C500.999847,167.666519 500.999847,334.333038 500.999939,500.999786 
	C410.500000,501.000000 320.000000,501.000000 229.000000,501.000000 
M205.603424,332.499512 
	C205.599533,342.833344 205.742920,353.170502 205.509674,363.499146 
	C205.430939,366.985626 206.628738,368.858673 209.641235,370.548218 
	C221.843048,377.391632 233.888168,384.514526 245.988129,391.539429 
	C252.901672,395.553192 259.673645,391.752838 259.676483,383.821747 
	C259.691620,341.155243 259.692627,298.488739 259.702728,255.822220 
	C259.703827,251.164978 255.101242,245.949768 250.859543,245.831360 
	C246.835205,245.719025 241.941681,251.088379 241.940811,255.637756 
	C241.934021,291.304291 241.931091,326.970795 241.927017,362.637329 
	C241.926834,364.225647 241.927002,365.813995 241.927002,368.424896 
	C236.461441,365.280334 231.983643,362.513519 227.324463,360.096313 
	C224.616348,358.691376 223.593704,356.900055 223.601334,353.829987 
	C223.690811,317.830383 223.601761,281.830139 223.806137,245.831436 
	C223.817169,243.885361 225.558792,241.250290 227.274292,240.136658 
	C233.834518,235.878021 240.784042,232.224182 247.437531,228.101334 
	C249.937332,226.552307 251.820053,226.692184 254.257065,228.196594 
	C260.491241,232.045044 266.790680,235.819717 273.280640,239.209106 
	C276.843292,241.069702 278.105774,243.333908 278.090820,247.396362 
	C277.937653,289.062195 277.997253,330.728790 278.012817,372.395172 
	C278.013458,374.130219 278.164703,375.865173 278.254181,377.778931 
	C279.210510,377.556274 279.734802,377.553223 280.129089,377.325287 
	C296.711365,367.739899 313.324097,358.205109 329.779480,348.406097 
	C331.195953,347.562561 332.299469,344.953888 332.304657,343.161591 
	C332.428009,300.495605 332.341553,257.829041 332.441315,215.162918 
	C332.449066,211.839432 331.259521,210.162598 328.468781,208.561172 
	C303.621704,194.303085 278.893036,179.838425 254.016403,165.632599 
	C252.409790,164.715134 249.402695,164.619598 247.830536,165.515900 
	C222.510376,179.951614 197.296921,194.575455 172.150391,209.312134 
	C170.750488,210.132538 169.298584,212.301712 169.292557,213.848648 
	C169.193039,239.343994 169.332550,264.840179 169.394775,290.336243 
	C169.423004,301.906281 169.399567,313.476471 169.399567,326.323822 
	C163.518280,322.991364 159.015900,320.267853 154.349686,317.862122 
	C151.634109,316.462097 150.760986,314.635742 150.770264,311.586090 
	C150.879318,275.753204 150.873108,239.919785 150.781647,204.086792 
	C150.774368,201.229050 151.679825,199.579544 154.153076,198.157028 
	C185.197372,180.301422 216.202988,162.378296 247.164902,144.380264 
	C249.763931,142.869446 251.754120,142.801163 254.416946,144.351059 
	C284.936829,162.115280 315.496979,179.811279 346.151978,197.340820 
	C349.640350,199.335587 350.913544,201.505569 350.898071,205.535995 
	C350.739319,246.868591 350.793335,288.201996 350.788025,329.535187 
	C350.787781,331.463806 350.788025,333.392456 350.788025,336.330566 
	C356.258698,333.189972 360.744629,330.412354 365.422607,328.008484 
	C368.038574,326.664154 368.811798,324.913422 368.805847,322.070038 
	C368.716614,279.403778 368.700897,236.737213 368.783630,194.070953 
	C368.789490,191.044571 367.917206,189.338211 365.214203,187.783310 
	C328.540588,166.687073 291.921631,145.495407 255.368515,124.191139 
	C252.124527,122.300430 249.745865,122.131203 246.376984,124.098488 
	C209.987534,145.348495 173.510437,166.449066 136.971161,187.440567 
	C134.010345,189.141556 132.882446,190.863220 132.893127,194.325623 
	C133.023636,236.658417 133.031006,278.991974 132.876251,321.324585 
	C132.862625,325.053375 134.170685,326.942017 137.256332,328.693604 
	C152.464584,337.326508 167.547241,346.180542 182.688324,354.932098 
	C183.903885,355.634705 185.226303,356.152435 187.099792,357.040985 
	C187.099792,353.975891 187.099792,351.660492 187.099808,349.345093 
	C187.100174,308.178558 187.140381,267.011902 187.027924,225.845673 
	C187.018570,222.422913 188.061661,220.474747 191.069214,218.766434 
	C209.894882,208.073425 228.564026,197.104172 247.427109,186.478699 
	C249.157776,185.503830 252.369873,185.443619 254.077789,186.406509 
	C273.084045,197.121918 291.973541,208.048279 310.744019,219.171646 
	C312.460999,220.189102 314.139374,222.955078 314.150299,224.918488 
	C314.351776,261.083893 314.309723,297.250793 314.242249,333.417206 
	C314.239746,334.769867 313.885834,336.778351 312.976135,337.364624 
	C307.738007,340.740173 302.282837,343.778931 296.015991,347.450500 
	C296.015991,344.483002 296.016022,342.705292 296.015991,340.927612 
	C296.015594,306.094391 296.002563,271.261169 296.039032,236.427979 
	C296.041901,233.663971 295.887634,231.512817 292.909088,229.855453 
	C279.957214,222.648621 267.139984,215.195312 254.381256,207.649872 
	C251.748962,206.093124 249.778214,206.104523 247.157822,207.653091 
	C234.683914,215.024826 222.152573,222.305664 209.496140,229.357697 
	C206.398804,231.083481 205.526382,233.133621 205.538147,236.500015 
	C205.648819,268.166199 205.603653,299.832916 205.603424,332.499512 
z"/>
<path fill="#1F6FD1" opacity="1.000000" stroke="none" 
	d="
M205.603455,331.999512 
	C205.603653,299.832916 205.648819,268.166199 205.538147,236.500015 
	C205.526382,233.133621 206.398804,231.083481 209.496140,229.357697 
	C222.152573,222.305664 234.683914,215.024826 247.157822,207.653091 
	C249.778214,206.104523 251.748962,206.093124 254.381256,207.649872 
	C267.139984,215.195312 279.957214,222.648621 292.909088,229.855453 
	C295.887634,231.512817 296.041901,233.663971 296.039032,236.427979 
	C296.002563,271.261169 296.015594,306.094391 296.015991,340.927612 
	C296.016022,342.705292 296.015991,344.483002 296.015991,347.450500 
	C302.282837,343.778931 307.738007,340.740173 312.976135,337.364624 
	C313.885834,336.778351 314.239746,334.769867 314.242249,333.417206 
	C314.309723,297.250793 314.351776,261.083893 314.150299,224.918488 
	C314.139374,222.955078 312.460999,220.189102 310.744019,219.171646 
	C291.973541,208.048279 273.084045,197.121918 254.077789,186.406509 
	C252.369873,185.443619 249.157776,185.503830 247.427109,186.478699 
	C228.564026,197.104172 209.894882,208.073425 191.069214,218.766434 
	C188.061661,220.474747 187.018570,222.422913 187.027924,225.845673 
	C187.140381,267.011902 187.100174,308.178558 187.099808,349.345093 
	C187.099792,351.660492 187.099792,353.975891 187.099792,357.040985 
	C185.226303,356.152435 183.903885,355.634705 182.688324,354.932098 
	C167.547241,346.180542 152.464584,337.326508 137.256332,328.693604 
	C134.170685,326.942017 132.862625,325.053375 132.876251,321.324585 
	C133.031006,278.991974 133.023636,236.658417 132.893127,194.325623 
	C132.882446,190.863220 134.010345,189.141556 136.971161,187.440567 
	C173.510437,166.449066 209.987534,145.348495 246.376984,124.098488 
	C249.745865,122.131203 252.124527,122.300430 255.368515,124.191139 
	C291.921631,145.495407 328.540588,166.687073 365.214203,187.783310 
	C367.917206,189.338211 368.789490,191.044571 368.783630,194.070953 
	C368.700897,236.737213 368.716614,279.403778 368.805847,322.070038 
	C368.811798,324.913422 368.038574,326.664154 365.422607,328.008484 
	C360.744629,330.412354 356.258698,333.189972 350.788025,336.330566 
	C350.788025,333.392456 350.787781,331.463806 350.788025,329.535187 
	C350.793335,288.201996 350.739319,246.868591 350.898071,205.535995 
	C350.913544,201.505569 349.640350,199.335587 346.151978,197.340820 
	C315.496979,179.811279 284.936829,162.115280 254.416946,144.351059 
	C251.754120,142.801163 249.763931,142.869446 247.164902,144.380264 
	C216.202988,162.378296 185.197372,180.301422 154.153076,198.157028 
	C151.679825,199.579544 150.774368,201.229050 150.781647,204.086792 
	C150.873108,239.919785 150.879318,275.753204 150.770264,311.586090 
	C150.760986,314.635742 151.634109,316.462097 154.349686,317.862122 
	C159.015900,320.267853 163.518280,322.991364 169.399567,326.323822 
	C169.399567,313.476471 169.423004,301.906281 169.394775,290.336243 
	C169.332550,264.840179 169.193039,239.343994 169.292557,213.848648 
	C169.298584,212.301712 170.750488,210.132538 172.150391,209.312134 
	C197.296921,194.575455 222.510376,179.951614 247.830536,165.515900 
	C249.402695,164.619598 252.409790,164.715134 254.016403,165.632599 
	C278.893036,179.838425 303.621704,194.303085 328.468781,208.561172 
	C331.259521,210.162598 332.449066,211.839432 332.441315,215.162918 
	C332.341553,257.829041 332.428009,300.495605 332.304657,343.161591 
	C332.299469,344.953888 331.195953,347.562561 329.779480,348.406097 
	C313.324097,358.205109 296.711365,367.739899 280.129089,377.325287 
	C279.734802,377.553223 279.210510,377.556274 278.254181,377.778931 
	C278.164703,375.865173 278.013458,374.130219 278.012817,372.395172 
	C277.997253,330.728790 277.937653,289.062195 278.090820,247.396362 
	C278.105774,243.333908 276.843292,241.069702 273.280640,239.209106 
	C266.790680,235.819717 260.491241,232.045044 254.257065,228.196594 
	C251.820053,226.692184 249.937332,226.552307 247.437531,228.101334 
	C240.784042,232.224182 233.834518,235.878021 227.274292,240.136658 
	C225.558792,241.250290 223.817169,243.885361 223.806137,245.831436 
	C223.601761,281.830139 223.690811,317.830383 223.601334,353.829987 
	C223.593704,356.900055 224.616348,358.691376 227.324463,360.096313 
	C231.983643,362.513519 236.461441,365.280334 241.927002,368.424896 
	C241.927002,365.813995 241.926834,364.225647 241.927017,362.637329 
	C241.931091,326.970795 241.934021,291.304291 241.940811,255.637756 
	C241.941681,251.088379 246.835205,245.719025 250.859543,245.831360 
	C255.101242,245.949768 259.703827,251.164978 259.702728,255.822220 
	C259.692627,298.488739 259.691620,341.155243 259.676483,383.821747 
	C259.673645,391.752838 252.901672,395.553192 245.988129,391.539429 
	C233.888168,384.514526 221.843048,377.391632 209.641235,370.548218 
	C206.628738,368.858673 205.430939,366.985626 205.509674,363.499146 
	C205.742920,353.170502 205.599533,342.833344 205.603455,331.999512 
z"/>
</svg>