<svg version="1.1" id="Layer_1" xmlns="http://www.w3.org/2000/svg" xmlns:xlink="http://www.w3.org/1999/xlink" x="0px" y="0px"
	 width="100%" viewBox="0 0 500 500" enable-background="new 0 0 500 500" xml:space="preserve">
<path fill="#000001" opacity="1.000000" stroke="none" 
	d="
M229.000000,501.000000 
	C154.000015,501.000000 79.499985,500.969910 5.000216,501.096252 
	C1.575864,501.102081 0.903036,500.423798 0.905301,497.000000 
	C1.013779,333.000092 1.013772,169.000122 0.905333,5.000235 
	C0.903070,1.576909 1.575829,0.903023 4.999888,0.905288 
	C168.999771,1.013774 332.999725,1.013761 496.999634,0.905352 
	C500.422668,0.903090 501.096985,1.575450 501.094727,4.999769 
	C500.986206,168.999649 500.986237,332.999634 501.094604,496.999542 
	C501.096893,500.422333 500.425354,501.100494 497.000305,501.095825 
	C407.833649,500.974762 318.666809,501.000000 229.000000,501.000000 
z"/>
<path fill="#216ECE" opacity="1.000000" stroke="none" 
	d="
M143.644653,332.266113 
	C134.187729,329.190979 132.592773,322.765015 132.716782,313.752289 
	C133.260056,274.264709 133.047150,234.765991 132.956894,195.271652 
	C132.948135,191.435822 133.791245,189.141403 137.434937,187.058014 
	C174.155075,166.062210 210.745392,144.838882 247.312119,123.576164 
	C250.001694,122.012230 251.928421,122.215240 254.553848,123.742119 
	C290.547668,144.675156 326.569031,165.562210 362.721191,186.219833 
	C367.138336,188.743820 368.900055,191.359848 368.867035,196.630554 
	C368.606873,238.125397 368.676453,279.622772 368.804565,321.118835 
	C368.815796,324.765137 367.787384,327.007111 364.501740,328.613098 
	C360.918915,330.364380 357.509613,332.490540 354.112762,334.595428 
	C351.881958,335.977753 350.783569,335.730103 350.813324,332.907532 
	C350.837921,330.575470 350.795685,328.242828 350.795776,325.910431 
	C350.796936,286.247131 350.732330,246.583572 350.890991,206.920914 
	C350.910248,202.104538 349.694214,199.313049 345.157959,196.746109 
	C314.715973,179.519699 284.499146,161.894699 254.263153,144.306381 
	C251.798584,142.872726 249.945923,142.818130 247.435837,144.276962 
	C216.472427,162.272537 185.456467,180.178055 154.400055,198.012726 
	C151.764267,199.526382 150.769104,201.272491 150.777390,204.340805 
	C150.873611,240.004059 150.864990,275.667816 150.757416,311.331055 
	C150.747635,314.572174 151.674957,316.619110 154.646515,318.042084 
	C157.792511,319.548615 160.742310,321.467346 163.765839,323.226593 
	C168.898239,326.212891 169.167892,326.098694 169.171417,320.293518 
	C169.191818,286.635132 169.380493,252.974625 169.018417,219.320160 
	C168.950150,212.975296 170.818909,209.665558 176.375839,206.557816 
	C199.922424,193.389282 223.173782,179.690491 246.450684,166.045044 
	C249.549149,164.228638 251.848923,164.152893 255.056381,166.037354 
	C279.469910,180.381104 303.983154,194.556854 328.574738,208.593292 
	C331.470886,210.246338 332.504944,212.075470 332.500336,215.251236 
	C332.437958,258.080566 332.436554,300.910095 332.520996,343.739349 
	C332.526611,346.597260 331.085510,347.837555 328.928589,349.081787 
	C313.491455,357.986511 298.104645,366.978424 282.686737,375.916504 
	C278.158508,378.541565 277.985077,378.418579 277.983215,373.085602 
	C277.968689,331.589447 277.855286,290.092712 278.080963,248.597824 
	C278.108582,243.515381 276.601288,240.742691 272.107544,238.532501 
	C265.993622,235.525452 260.187531,231.866287 254.378983,228.277084 
	C251.981888,226.795868 250.062836,226.536377 247.536972,228.091492 
	C240.729218,232.282944 233.807083,236.298477 226.813126,240.172180 
	C224.436310,241.488617 223.614075,243.128403 223.616592,245.751053 
	C223.651291,281.914124 223.626175,318.077332 223.562088,354.240387 
	C223.557419,356.875031 224.488571,358.557861 226.874863,359.795837 
	C230.566193,361.710907 234.163071,363.831512 237.675919,366.060516 
	C241.142365,368.260132 241.934280,366.868835 241.898727,363.436768 
	C241.821045,355.938599 241.910034,348.438843 241.909668,340.939728 
	C241.908310,312.442413 241.898209,283.945129 241.892136,255.447830 
	C241.891205,251.110764 246.560699,245.961746 250.631287,245.807175 
	C254.439301,245.662567 259.617126,250.997101 259.619629,255.185287 
	C259.645447,298.514862 259.663330,341.844452 259.646484,385.174011 
	C259.644165,391.176666 252.476822,395.265778 247.321381,392.290710 
	C234.769730,385.047546 222.268188,377.715820 209.645920,370.598053 
	C206.703262,368.938690 205.466797,367.046814 205.477020,363.554108 
	C205.601395,321.058136 205.599701,278.561615 205.503403,236.065567 
	C205.495956,232.786545 206.621521,230.931503 209.424133,229.353455 
	C222.049255,222.244644 234.609924,215.018295 247.095612,207.667496 
	C249.719864,206.122482 251.738571,206.086075 254.379883,207.646698 
	C266.854675,215.017426 279.385864,222.298676 292.039429,229.356400 
	C295.105103,231.066330 296.116028,233.054199 296.103638,236.462158 
	C295.979889,270.458527 295.978699,304.455505 296.047821,338.452087 
	C296.052979,340.989899 294.729126,344.524170 297.117889,345.867950 
	C299.173706,347.024414 301.373199,343.904755 303.676575,343.082123 
	C312.649323,339.877533 314.754395,333.686218 314.562286,324.314453 
	C313.899811,291.998138 314.271179,259.658875 314.440338,227.329346 
	C314.463776,222.851578 313.186646,220.203934 309.073517,217.902924 
	C290.615509,207.577042 272.368134,196.872879 254.110168,186.193405 
	C251.810913,184.848541 250.053162,184.761887 247.719864,186.119644 
	C228.714706,197.178955 209.673050,208.176971 190.550446,219.031494 
	C187.568863,220.723923 187.048767,222.904556 187.054657,225.985199 
	C187.134262,267.648132 187.123459,309.311249 187.086777,350.974304 
	C187.085236,352.732635 187.990906,355.157959 186.381027,356.111664 
	C184.752396,357.076477 183.096085,355.102203 181.565399,354.220642 
	C169.014313,346.992401 156.490555,339.716766 143.644653,332.266113 
z"/>
</svg>