<svg xmlns="http://www.w3.org/2000/svg" viewBox="0 0 500 500"><g id="freepik--character-2--inject-7"><path d="M336.59,203.81c-3.28,5.8-6.77,11.29-10.54,16.77-1.54,2.23-3.13,4.45-4.83,6.64-.38.5-.76,1-1.15,1.48L319,230.1c-.72.87-1.46,1.74-2.25,2.62a39.7,39.7,0,0,1-4.22,4.13,14.47,14.47,0,0,1-4,2.43,9.36,9.36,0,0,1-1,.31,10,10,0,0,1-1.22.23c-.32,0-.64.06-1,.06s-.55,0-.83,0a12.11,12.11,0,0,1-2.57-.49,18.4,18.4,0,0,1-3.35-1.49c-.93-.52-1.76-1.05-2.55-1.6a67.25,67.25,0,0,1-8.05-6.82,70.17,70.17,0,0,1-11.19-15.09l3-4.51c2.49,1.93,5.24,4,7.78,5.87s4.9,3.77,7.45,5.54a66.09,66.09,0,0,0,7.63,4.39c.48.24.95.47,1.38.66a32.56,32.56,0,0,0,2.14-2.52c.88-1.13,1.77-2.33,2.65-3.57,1.75-2.48,3.48-5.09,5.18-7.72,3.41-5.26,6.77-10.73,10.09-16Z" style="fill:#407BFF"></path><path d="M273.14,211.25s-2.2-1.92-4.16-3.48,1.69-1.65,3.39-.79a17,17,0,0,1,3.8,2.65Z" style="fill:#ffc3bd"></path><path d="M273.14,211.25s-2.2-1.92-4.16-3.48,1.69-1.65,3.39-.79a17,17,0,0,1,3.8,2.65Z" style="opacity:0.2"></path><path d="M276.8,214.35s-3.09.37-7.73.58-7.6-4.16-9.91-5.42,3.16-2.09,5-.29,7,.2,9-.44,5.42-.51,6.57,1.06C279.8,211.39,278.58,214.82,276.8,214.35Z" style="fill:#ffc3bd"></path><polygon points="343.02 429 343.02 444.13 336.9 444.62 333.91 430.45 343.02 429" style="fill:#ffc3bd"></polygon><path d="M338.68,443.2s-1.92-3.69-3.06-3.3-1.59,4.87-1.59,4.87-6.17,2.06-7.89,2.17S323,448,322.8,451.39h21.05s-.14-7.6-.18-8.9-1.89.33-1.89.33Z" style="fill:#407BFF"></path><g style="opacity:0.2"><path d="M338.68,443.2s-1.92-3.69-3.06-3.3-1.59,4.87-1.59,4.87-6.17,2.06-7.89,2.17S323,448,322.8,451.39h21.05s-.14-7.6-.18-8.9-1.89.33-1.89.33Z" style="fill:#fff"></path></g><path d="M343.62,445.38a3.15,3.15,0,0,0-1.15,4.44.15.15,0,1,1-.26.16,3.46,3.46,0,0,1,1.2-4.89c.17-.11.38.18.21.29Z" style="fill:#fff"></path><path d="M343.65,450.18l-16.51.17-3.84,0c-.21,0-.26-.33,0-.33l16.51-.17,3.83-.05c.22,0,.26.34,0,.34Z" style="fill:#fff"></path><path d="M334.94,446.09a2.14,2.14,0,0,0-3.07-.54c-.16.13-.36-.16-.21-.29,1.09-.89,2.56-.5,3.54.67.15.17-.12.34-.26.16Z" style="fill:#fff"></path><path d="M333.19,446.64a2.13,2.13,0,0,0-3.07-.54c-.15.13-.36-.16-.2-.29,1.08-.89,2.56-.51,3.54.66.15.18-.12.35-.27.17Z" style="fill:#fff"></path><path d="M331.39,447.19a2.13,2.13,0,0,0-3.07-.54c-.16.12-.36-.17-.2-.29,1.08-.89,2.56-.51,3.54.66.15.18-.12.34-.27.17Z" style="fill:#fff"></path><path d="M346.69,279c-.18,2.7.2,11-.17,15.45-.69,8.49-1.61,19.49-2.34,30.52-.86,12.77-2.83,25-2.52,33.83.78,22.78,2,75,2,75h-9.89s-11.6-51.31-13.77-74.41c-1.82-19.14-.85-68.47-.55-80.39Z" style="fill:#263238"></path><path d="M346.52,294.4c-.69,8.49-1.61,19.49-2.34,30.52-4.87-14.4-.35-36.15-.35-36.15Z" style="opacity:0.2"></path><polygon points="344.49 434.1 332.89 434.1 332.04 430.4 345.02 429.95 344.49 434.1" style="fill:#407BFF"></polygon><path d="M356.88,360.84c4.78,22.7,22.42,72.21,22.42,72.21l9.82-1.11s-7.15-50.86-10.5-73.4c-3-20.35-4.92-66.77-5.61-80.6l-32.8,1c1.05,11.87,12.71,63.07,16.67,81.89Z" style="fill:#263238"></path><polygon points="388.29 429 388.29 444.13 382.18 444.62 379.18 430.45 388.29 429" style="fill:#ffc3bd"></polygon><path d="M384,443.2s-1.92-3.69-3.05-3.3-1.6,4.87-1.6,4.87-6.16,2.06-7.89,2.17-3.11,1.09-3.33,4.45h21s-.14-7.6-.18-8.9-1.89.33-1.89.33Z" style="fill:#407BFF"></path><g style="opacity:0.2"><path d="M384,443.2s-1.92-3.69-3.05-3.3-1.6,4.87-1.6,4.87-6.16,2.06-7.89,2.17-3.11,1.09-3.33,4.45h21s-.14-7.6-.18-8.9-1.89.33-1.89.33Z" style="fill:#fff"></path></g><path d="M388.89,445.38a3.16,3.16,0,0,0-1.14,4.44.16.16,0,1,1-.27.16,3.46,3.46,0,0,1,1.2-4.89c.18-.11.38.18.21.29Z" style="fill:#fff"></path><path d="M388.92,450.18l-16.51.17-3.84,0c-.21,0-.25-.33,0-.33l16.51-.17,3.84-.05c.21,0,.26.34,0,.34Z" style="fill:#fff"></path><path d="M380.21,446.09a2.14,2.14,0,0,0-3.07-.54c-.16.13-.36-.16-.21-.29,1.09-.89,2.57-.5,3.55.67.14.17-.12.34-.27.16Z" style="fill:#fff"></path><path d="M378.47,446.64a2.14,2.14,0,0,0-3.07-.54c-.16.13-.36-.16-.21-.29,1.09-.89,2.56-.51,3.54.66.15.18-.12.35-.26.17Z" style="fill:#fff"></path><path d="M376.66,447.19a2.13,2.13,0,0,0-3.07-.54c-.15.12-.36-.17-.2-.29,1.08-.89,2.56-.51,3.54.66.15.18-.12.34-.27.17Z" style="fill:#fff"></path><polygon points="390.01 432.19 378.49 433.5 377.23 429.92 390.08 428 390.01 432.19" style="fill:#407BFF"></polygon><path d="M375.33,280.17C352.13,282.78,330,281,318,279c.6-5.93,4.31-77.84,5.82-82,1.4-3.86,8-5.74,12.65-6.51,1.13-.19,2.14-.32,3-.39a117.37,117.37,0,0,1,13.29-.3c2.22.06,4.47.15,6.7.26,3.25.15,4.74.27,7.19.57,3.74.46,6.34,3.41,6,8.19-.47,6.24-.69,12.47-.73,18.57,0,1.61,0,3.2,0,4.79C372,250,375.61,274,375.33,280.17Z" style="fill:#407BFF"></path><path d="M375.33,280.17C352.13,282.78,330,281,318,279c.6-5.93,4.31-77.84,5.82-82,1.4-3.86,8-5.74,12.65-6.51,1.13-.19,2.14-.32,3-.39a117.37,117.37,0,0,1,13.29-.3c2.22.06,4.47.15,6.7.26,3.25.15,4.74.27,7.19.57,3.74.46,6.34,3.41,6,8.19-.47,6.24-.69,12.47-.73,18.57,0,1.61,0,3.2,0,4.79C372,250,375.61,274,375.33,280.17Z" style="fill:#fff;opacity:0.5"></path><path d="M373,251.92l4.59,6.31a154.57,154.57,0,0,0,17.95-12c1.44-1.13,2.89-2.3,4.31-3.61a35.53,35.53,0,0,0,4.35-4.6,16.34,16.34,0,0,0,1.14-1.71,10.88,10.88,0,0,0,1.15-2.72,6.47,6.47,0,0,0,.22-1.07,8.49,8.49,0,0,0,.1-1.33,6,6,0,0,0-.06-.8c0-.28-.07-.56-.13-.85a7.75,7.75,0,0,0-.27-.94l-.16-.46-.11-.25-.24-.5-.2-.37-.19-.34-.17-.27c-.23-.37-.41-.63-.6-.92-.74-1-1.37-1.81-2-2.57s-1.26-1.48-1.88-2.18c-2.5-2.76-5-5.3-7.53-7.82s-5.09-5-7.7-7.35c-5-4.68-10.16-9.21-15.51-13.55a1.7,1.7,0,0,0-1-.38h-.21c-8,.06-11.44,10.31-5.4,15.59,3.87,3.39,7.82,6.73,11.74,10.06L383,224c2.62,2.22,5.21,4.47,7.63,6.68.58.54,1.16,1.07,1.69,1.59-.42.56-.9,1.15-1.38,1.72-1,1.19-2.12,2.41-3.26,3.62C383.08,242.43,378,247.2,373,251.92Z" style="fill:#407BFF"></path><path d="M376.4,249.33s-7.44.43-8.74,1.4,3,9.58,5.12,11.2,1.68-1.6,1.68-1.6a19.41,19.41,0,0,0,6-3.25C382.58,255.13,382.08,251.29,376.4,249.33Z" style="fill:#ffc3bd"></path><path d="M352.68,189.76c-1.7,2.9-6.35,9.1-13.1,9.12-5,0-4.5-5.86-3.15-8.43,1.13-.19,2.14-.32,3-.39A117.37,117.37,0,0,1,352.68,189.76Z" style="fill:#407BFF"></path><path d="M335.51,154.11c6.32-.66,8.31.21,11.52,2.32,2.1,1.38,5.13,4.15,5.65,7.49,1.58,10.18-5.69,13.91-5.69,13.91l-19.8-11.22s-5.33-6.88-.21-11.61C329.55,152.62,332.36,154.44,335.51,154.11Z" style="fill:#263238"></path><path d="M337.17,185.5h0a.21.21,0,0,0,0,.07l1,3.55a11.09,11.09,0,0,1,0,2.15A12,12,0,0,1,338,193c-.42,1.24-.6,3.68,1.65,3.5,3.5-.27,9.91-5.18,10.13-6.72-1.66-4.79-3.06-10.38-2.83-15l-4,4.36Z" style="fill:#ffc3bd"></path><g style="opacity:0.2"><path d="M337.2,185.58l1,3.55c2.19-1,4.47-3.19,5-5.53.36-1.69-.41-3.26-1.09-3.34Z"></path></g><path d="M328.26,178.2c.21.77.45,1.53.71,2.28,2.26,6.62,10.45,7.16,15.51,2.23,0,0,0,0,0,0a11.07,11.07,0,0,0,1.27-1.44c3.2-4.28,2.37-7.55,1.82-15a10.14,10.14,0,0,0-15.22-8.15C326.17,161.68,326.12,170.48,328.26,178.2Z" style="fill:#ffc3bd"></path><path d="M328.12,177.67s.21,8.27,5.17,9.66c3.88,1.1,10.28-.61,10.8-6.12.48-5,.56-9.86.56-9.86l-1.83.4s-2.53,4-3.58,4.19-1.4-1.06-6.46-.18C329.1,176.4,328.12,177.67,328.12,177.67Z" style="fill:#263238"></path><path d="M331.43,178.68a49.53,49.53,0,0,0,5.05-1.94,2.82,2.82,0,0,1-2.27,3.12A2.58,2.58,0,0,1,331.43,178.68Z" style="fill:#fff"></path><path d="M342.83,164.44c1.87.46,0,7.31,0,7.31l2.64-.57s-.2-.25-.11-2.17,2.32-2,2.32-2,.55-5.56-2.35-9-10-2.94-13.52-.54a11.32,11.32,0,0,0-4.27,6.83s2.42-3.47,3.49-3.47.06,1.47,1.18,1.44c2.16-.06,3.17-3.38,6.62-2.57S338.4,163.34,342.83,164.44Z" style="fill:#263238"></path><path d="M351.41,170.76a7.08,7.08,0,0,1-2.79,4.62c-2,1.46-3.87-.13-4-2.47-.15-2.11.72-5.41,3.08-5.94a3.18,3.18,0,0,1,3.74,3.79" style="fill:#ffc3bd"></path><path d="M336.61,171.32c.08.58-.16,1.1-.54,1.15s-.75-.38-.83-1,.16-1.09.54-1.15.76.38.83,1" style="fill:#263238"></path><path d="M330.24,172.11c.08.58-.16,1.09-.54,1.14s-.76-.38-.83-1,.16-1.09.54-1.14.75.38.83,1" style="fill:#263238"></path><path d="M327.77,169.89a.28.28,0,0,0,.24-.18,1.5,1.5,0,0,1,.8-.91,1.7,1.7,0,0,1,1.21,0,.3.3,0,0,0,.39-.16.29.29,0,0,0-.15-.39,2.4,2.4,0,0,0-1.68,0,2.1,2.1,0,0,0-1.12,1.24.29.29,0,0,0,.16.38A.27.27,0,0,0,327.77,169.89Z" style="fill:#263238"></path><path d="M338,168.71a.21.21,0,0,0,.13-.05.29.29,0,0,0,.08-.4,2.32,2.32,0,0,0-1.39-.94,2.09,2.09,0,0,0-1.62.42.31.31,0,0,0-.07.42.3.3,0,0,0,.41.07,1.51,1.51,0,0,1,1.17-.33,1.84,1.84,0,0,1,1,.68A.27.27,0,0,0,338,168.71Z" style="fill:#263238"></path><path d="M332.69,170.11a18.56,18.56,0,0,1-2.26,4.94c-.15.22,2.53.67,2.53.67Z" style="fill:#ed847e"></path><path d="M337.77,188.43h0Z"></path></g></svg>
