<?xml version="1.0" encoding="UTF-8"?>
<svg version="1.1" xmlns="http://www.w3.org/2000/svg" width="500" height="500">
<path d="M0 0 C165 0 330 0 500 0 C500 165 500 330 500 500 C335 500 170 500 0 500 C0 335 0 170 0 0 Z " fill="#000000" transform="translate(0,0)"/>
<path d="M0 0 C2.95427132 1.2547661 5.65903558 2.63136776 8.42773438 4.25244141 C9.95720703 5.14189453 9.95720703 5.14189453 11.51757812 6.04931641 C13.15146484 7.0103125 13.15146484 7.0103125 14.81835938 7.99072266 C17.16723298 9.35935767 19.51619372 10.72784313 21.86523438 12.09619141 C23.06341797 12.79663574 24.26160156 13.49708008 25.49609375 14.21875 C31.00787202 17.43495851 36.5384333 20.61835587 42.06835938 23.80322266 C44.23251402 25.05176087 46.39657622 26.30045934 48.56054688 27.54931641 C52.91901326 30.06391701 57.27848129 32.57676927 61.63867188 35.08837891 C63.82362845 36.34738807 66.00852457 37.60650218 68.19335938 38.86572266 C69.79352905 39.78792603 69.79352905 39.78792603 71.42602539 40.72875977 C79.93496662 45.63778916 88.4218014 50.58417903 96.89111328 55.5612793 C101.52699868 58.27679396 106.18555996 60.93295909 110.90649414 63.49829102 C112.60990967 64.42391846 114.3133252 65.3495459 116.06835938 66.30322266 C116.27676362 84.06195256 116.43674262 101.82039224 116.53466892 119.58009529 C116.5816658 127.82645948 116.64542529 136.07198795 116.74731445 144.31787109 C116.84500559 152.2736725 116.89889816 160.22866943 116.92225456 168.18502426 C116.93890182 171.22247868 116.97141033 174.25988838 117.01992989 177.29700089 C117.08514332 181.54760584 117.09426619 185.79487483 117.09008789 190.04589844 C117.12244537 191.30537796 117.15480286 192.56485748 117.18814087 193.86250305 C117.15210841 197.24379107 117.03472029 200.06196782 116.06835938 203.30322266 C111.75059509 206.98336792 111.75059509 206.98336792 107.06835938 209.30322266 C105.11929688 210.47884766 105.11929688 210.47884766 103.13085938 211.67822266 C100.06835938 213.30322266 100.06835938 213.30322266 98.06835938 213.30322266 C98.13617111 210.79745888 98.13617111 210.79745888 98.20535278 208.24107361 C98.61535979 192.45598076 98.88671527 176.6736954 99.02432442 160.883811 C99.09947564 152.76607888 99.22245879 144.65509773 99.45703125 136.5402832 C99.6818798 128.69968945 99.77810155 120.86684121 99.7873497 113.02313423 C99.81305718 110.03994416 99.88418781 107.05677145 100.00253677 104.07581902 C100.64674283 90.3595363 100.64674283 90.3595363 97.06835938 77.30322266 C90.90030645 70.66603595 82.75522056 67.20790312 74.50889206 63.81080818 C68.75482336 61.28946876 63.45062978 58.02532862 58.06835938 54.80322266 C55.91278673 53.55500638 53.75545928 52.30981126 51.59570312 51.06884766 C50.52433105 50.45074219 49.45295898 49.83263672 48.34912109 49.19580078 C45.00698081 47.26781511 41.66464453 45.34016961 38.32226562 43.41259766 C37.21206055 42.77193359 36.10185547 42.13126953 34.95800781 41.47119141 C32.76328276 40.2060197 30.5673437 38.94295131 28.37011719 37.68212891 C23.35471055 34.80038225 18.36329017 31.89170109 13.42382812 28.88134766 C11.73902344 27.86556641 10.05421875 26.84978516 8.31835938 25.80322266 C6.85914063 24.90603516 5.39992188 24.00884766 3.89648438 23.08447266 C-0.3743413 21.09723132 -1.50987349 21.18511509 -5.93164062 22.30322266 C-9.59539514 24.26304055 -13.1316438 26.28032783 -16.68164062 28.42822266 C-18.84524184 29.71415534 -21.00932064 30.99928476 -23.17382812 32.28369141 C-24.28983398 32.94933105 -25.40583984 33.6149707 -26.55566406 34.30078125 C-31.94417175 37.49694411 -37.37517076 40.61831728 -42.80664062 43.74072266 C-44.98250799 44.99447947 -47.15828869 46.2483867 -49.33398438 47.50244141 C-50.95989502 48.43902588 -50.95989502 48.43902588 -52.61865234 49.39453125 C-58.20335153 52.61200938 -63.7862348 55.83263408 -69.36914062 59.05322266 C-70.34931152 59.618396 -71.32948242 60.18356934 -72.33935547 60.76586914 C-74.30418265 61.89914934 -76.25487909 63.05731387 -78.19000244 64.24060059 C-81.93164062 66.30322266 -81.93164062 66.30322266 -86.67001343 68.15345764 C-92.35056711 70.66363506 -96.43084489 72.9968855 -100.93164062 77.30322266 C-103.62804362 86.12424041 -103.15571639 94.61319019 -102.78710938 103.75244141 C-102.75163556 106.3373677 -102.72460689 108.92242245 -102.7056427 111.50752258 C-102.63336491 118.28589607 -102.44702378 125.05643316 -102.23626709 131.83172607 C-102.0412815 138.75539103 -101.95499758 145.68033325 -101.859375 152.60595703 C-101.65608984 166.17514092 -101.33218959 179.73852835 -100.93164062 193.30322266 C-95.65164062 196.27322266 -90.37164062 199.24322266 -84.93164062 202.30322266 C-84.9479805 200.89278687 -84.96432037 199.48235107 -84.9811554 198.0291748 C-85.12674717 184.72816449 -85.2038179 171.42828053 -85.21404743 158.12645721 C-85.22150244 151.28777351 -85.25297577 144.45096846 -85.33959961 137.61279297 C-85.42233499 131.01148489 -85.4416381 124.41274037 -85.41722679 117.81098938 C-85.41901686 115.29433845 -85.44354997 112.77759633 -85.49132729 110.26139832 C-85.84410951 90.53134674 -85.84410951 90.53134674 -81.15003967 85.06251526 C-77.78469418 82.95948277 -74.66447471 81.61800345 -70.93164062 80.30322266 C-68.89509685 79.16367079 -66.87673931 77.99022714 -64.88867188 76.76806641 C-62.84157243 75.59040994 -60.79336156 74.41468367 -58.74414062 73.24072266 C-56.47330373 71.93473927 -54.2024705 70.6287495 -51.93164062 69.32275391 C-49.59833371 67.98286415 -47.26500026 66.64302061 -44.93164062 65.30322266 C-41.48343885 63.3215697 -38.03581044 61.33893756 -34.58935547 59.35424805 C-32.37979205 58.08208006 -30.16919824 56.81169984 -27.95751953 55.54321289 C-20.78692692 51.41855037 -13.73341826 47.14212214 -6.78710938 42.64697266 C-3.93164062 41.30322266 -3.93164062 41.30322266 1.06835938 42.30322266 C4.56230964 44.13338708 7.9709803 46.01506492 11.38085938 47.99072266 C12.39559326 48.57160645 13.41032715 49.15249023 14.45581055 49.75097656 C23.61017848 55.00356353 32.72310388 60.32837498 41.83007812 65.66259766 C46.25977208 68.25385864 50.70118429 70.82373455 55.15039062 73.38134766 C56.32561279 74.05697754 57.50083496 74.73260742 58.71166992 75.42871094 C60.97908343 76.73087184 63.24742926 78.03141111 65.5168457 79.33007812 C66.54704834 79.92191895 67.57725098 80.51375977 68.63867188 81.12353516 C69.54375488 81.64189941 70.44883789 82.16026367 71.38134766 82.69433594 C72.71141846 83.49073486 72.71141846 83.49073486 74.06835938 84.30322266 C75.60461472 84.94909584 75.60461472 84.94909584 77.17190552 85.60801697 C80.06835938 88.30322266 80.06835938 88.30322266 80.93792725 93.85984802 C81.02257291 96.25080074 81.07350587 98.64308176 81.09863281 101.03540039 C81.13484741 102.34158829 81.17106201 103.64777618 81.20837402 104.99354553 C81.31659694 109.32471536 81.37681138 113.65461257 81.42773438 117.98681641 C81.46066967 120.20761775 81.46066967 120.20761775 81.49427032 122.47328377 C81.60773803 130.31429211 81.68336953 138.1546564 81.72949219 145.99633789 C81.78464929 154.08344379 81.97011617 162.16199068 82.18612289 170.24616909 C82.32828939 176.47390136 82.37188209 182.69960521 82.38928986 188.92881966 C82.41476616 191.90788283 82.47717045 194.88687577 82.57781219 197.86434746 C83.29488388 220.54999241 83.29488388 220.54999241 77.91818428 226.80439758 C71.90508264 231.68328946 65.20656768 234.44633663 58.06835938 237.30322266 C55.48775702 238.73706831 52.92571073 240.20659567 50.40820312 241.74853516 C48.27480939 242.97635101 46.14072691 244.20297117 44.00585938 245.42822266 C41.82725286 246.68044224 39.6488588 247.93303153 37.47070312 249.18603516 C36.54765381 249.71600098 35.62460449 250.2459668 34.67358398 250.79199219 C32.12397597 252.27096076 29.59583328 253.78673832 27.06835938 255.30322266 C26.40835938 255.30322266 25.74835938 255.30322266 25.06835938 255.30322266 C25.0935817 253.62161041 25.11880402 251.93999817 25.14479065 250.20742798 C25.37154979 234.34658774 25.50852958 218.48716299 25.55801487 202.62475014 C25.58633117 194.4696154 25.64607285 186.31725375 25.77807617 178.16308594 C25.90435299 170.29079333 25.94750017 162.42199706 25.93345451 154.54874802 C25.94262563 151.54797994 25.98156488 148.54714817 26.05096626 145.54716873 C27.09869082 129.2485288 27.09869082 129.2485288 20.40328979 115.32489014 C16.01336405 112.7073083 11.88779515 110.96801166 7.06835938 109.30322266 C5.85519547 108.55392487 4.64203156 107.80462708 3.3921051 107.03262329 C-0.55408039 104.97935681 -1.70777067 105.31047972 -5.93164062 106.30322266 C-14.01206307 109.37732498 -21.95895087 112.86499121 -27.93164062 119.30322266 C-31.15809168 128.06313646 -30.92361142 136.35785613 -30.67773438 145.59619141 C-30.67985974 148.15441964 -30.689265 150.71265116 -30.70558167 153.27082825 C-30.71542012 158.61548154 -30.64884004 163.95197688 -30.52514648 169.29516602 C-30.37151081 176.12843638 -30.39213093 182.94775944 -30.46774197 189.78190136 C-30.50984302 195.05830372 -30.46844 200.33149478 -30.40120125 205.60753822 C-30.3773799 208.12509393 -30.37716104 210.64299256 -30.40148735 213.16054344 C-30.42126351 216.68949637 -30.33064007 220.19921145 -30.21069336 223.72583008 C-30.25052841 225.26829407 -30.25052841 225.26829407 -30.29116821 226.84191895 C-30.24921413 230.31599035 -30.24921413 230.31599035 -27.93164062 235.30322266 C-22.32164062 238.60322266 -16.71164063 241.90322266 -10.93164062 245.30322266 C-10.93164062 206.36322266 -10.93164062 167.42322266 -10.93164062 127.30322266 C-3.93164062 123.30322266 -3.93164062 123.30322266 -0.80664062 123.36572266 C2.06835938 124.30322266 2.06835938 124.30322266 7.06835938 127.30322266 C7.59026483 131.76785863 7.78181816 135.85202221 7.76293945 140.32421875 C7.78331017 142.34644814 7.78331017 142.34644814 7.80409241 144.40953064 C7.84150221 148.88217731 7.84141815 153.35387062 7.83789062 157.82666016 C7.84887124 160.92681253 7.86090358 164.02696134 7.87394714 167.12710571 C7.89488689 173.63220613 7.89611468 180.13696852 7.88500977 186.64208984 C7.873319 194.98797802 7.92082133 203.33234392 7.98447132 211.67795372 C8.02500971 218.08284013 8.02884266 224.48735771 8.02206993 230.89235306 C8.02428089 233.96961603 8.03923401 237.04689662 8.06702614 240.12403488 C8.10141383 244.42486633 8.08518042 248.72263307 8.0559082 253.0234375 C8.07681519 254.30050064 8.09772217 255.57756378 8.1192627 256.89332581 C8.06404114 260.44515991 8.06404114 260.44515991 7.06835938 266.30322266 C3.20465088 269.66468811 3.20465088 269.66468811 -0.93164062 271.30322266 C-4.09985352 270.79956055 -4.09985352 270.79956055 -6.93164062 269.30322266 C-7.8048999 268.85132568 -8.67815918 268.39942871 -9.57788086 267.93383789 C-10.45645752 267.4150708 -11.33503418 266.89630371 -12.24023438 266.36181641 C-13.22822021 265.78197998 -14.21620605 265.20214355 -15.23413086 264.60473633 C-16.78596069 263.68204956 -16.78596069 263.68204956 -18.36914062 262.74072266 C-19.43140869 262.11464111 -20.49367676 261.48855957 -21.58813477 260.84350586 C-24.70640149 259.00301179 -27.81970382 257.15439455 -30.93164062 255.30322266 C-32.54039062 254.34931641 -34.14914063 253.39541016 -35.80664062 252.41259766 C-45.75009301 246.48477028 -45.75009301 246.48477028 -46.93164062 245.30322266 C-47.02735177 241.06797096 -47.05708639 236.84901305 -47.04516602 232.61352539 C-47.04531204 231.2771402 -47.04545807 229.940755 -47.04560852 228.56387329 C-47.04490868 224.1215048 -47.03711297 219.67917762 -47.02929688 215.23681641 C-47.02743295 212.16667199 -47.02600893 209.09652727 -47.02500916 206.02638245 C-47.02118198 197.92643418 -47.01135001 189.82650371 -47.00030518 181.7265625 C-46.99009532 173.46891521 -46.98551245 165.21126506 -46.98046875 156.95361328 C-46.96972792 140.73680857 -46.95264912 124.52001709 -46.93164062 108.30322266 C-45.4911586 107.48061447 -44.05067657 106.65800629 -42.56654358 105.81047058 C-40.65706874 104.71976624 -38.74759943 103.62905223 -36.83813477 102.53833008 C-35.89102882 101.99750542 -34.94392288 101.45668076 -33.96811676 100.89946747 C-29.11378912 98.12632917 -24.26388596 95.34627088 -19.42773438 92.54150391 C-17.75839844 91.57599609 -16.0890625 90.61048828 -14.36914062 89.61572266 C-13.05913086 88.85098633 -13.05913086 88.85098633 -11.72265625 88.07080078 C-8.10479722 85.98560344 -5.00578646 84.32175912 -0.93164062 83.30322266 C2.65820312 84.97119141 2.65820312 84.97119141 7.00585938 87.49072266 C8.5965625 88.40337891 10.18726563 89.31603516 11.82617188 90.25634766 C12.6734082 90.74941406 13.52064453 91.24248047 14.39355469 91.75048828 C17.16961285 93.36200068 19.95698706 94.95222239 22.74804688 96.53759766 C29.55406888 100.40597019 36.35501452 104.27521574 43.06835938 108.30322266 C43.54947034 112.11561654 43.69983412 115.47800157 43.63598633 119.29223633 C43.63708153 120.99001472 43.63708153 120.99001472 43.63819885 122.72209167 C43.63470872 126.47227502 43.59577727 130.2212244 43.55664062 133.97119141 C43.54731765 136.56764548 43.54019911 139.16410834 43.53520203 141.76057434 C43.51609202 148.60143224 43.46695547 155.4417611 43.41168213 162.28240967 C43.36057665 169.25997764 43.33770652 176.23763093 43.3125 183.21533203 C43.25884164 196.91152828 43.17347952 210.60733151 43.06835938 224.30322266 C44.27234375 223.58134766 45.47632813 222.85947266 46.71679688 222.11572266 C48.2765625 221.18759766 49.83632813 220.25947266 51.44335938 219.30322266 C52.99796875 218.37509766 54.55257812 217.44697266 56.15429688 216.49072266 C60.06835938 214.30322266 60.06835938 214.30322266 62.06835938 214.30322266 C61.73835937 176.02322266 61.40835938 137.74322266 61.06835938 98.30322266 C49.68335938 91.86822266 49.68335938 91.86822266 38.06835938 85.30322266 C33.87319258 82.87690477 29.68396354 80.44553723 25.50585938 77.99072266 C24.51408691 77.41314209 23.52231445 76.83556152 22.50048828 76.24047852 C18.19518205 73.73285729 13.90972694 71.20627281 9.65820312 68.60791016 C8.43230469 67.86798828 7.20640625 67.12806641 5.94335938 66.36572266 C4.93015625 65.73794922 3.91695313 65.11017578 2.87304688 64.46337891 C-0.63366931 63.01282918 -2.26825956 63.43280875 -5.93164062 64.30322266 C-8.63929992 65.52996442 -8.63929992 65.52996442 -11.29101562 67.15478516 C-12.31219482 67.75186279 -13.33337402 68.34894043 -14.38549805 68.96411133 C-15.4732251 69.61226807 -16.56095215 70.2604248 -17.68164062 70.92822266 C-20.00570434 72.29176819 -22.32992795 73.65504122 -24.65429688 75.01806641 C-25.84941895 75.72302246 -27.04454102 76.42797852 -28.27587891 77.15429688 C-34.20179017 80.63765944 -40.16144526 84.06210901 -46.11914062 87.49072266 C-48.23772001 88.7132233 -50.356215 89.93587021 -52.47460938 91.15869141 C-55.53019097 92.9222207 -58.20971312 94.40244915 -61.54928589 95.59413147 C-65.56348245 98.18475022 -65.56348245 98.18475022 -65.81138611 103.94732666 C-65.84952269 106.37848612 -65.84869885 108.81043302 -65.81811523 111.24169922 C-65.82889099 112.56876892 -65.83966675 113.89583862 -65.85076904 115.26312256 C-65.87821574 119.65725786 -65.85625307 124.04970595 -65.83398438 128.44384766 C-65.84336436 131.48729521 -65.85581897 134.53073473 -65.87123108 137.57415771 C-65.90353981 145.59039227 -65.89398361 153.6060564 -65.87585449 161.62231445 C-65.86472003 169.79986891 -65.89297738 177.97727542 -65.91796875 186.15478516 C-65.96118758 202.20436624 -65.96020152 218.25362009 -65.93164062 234.30322266 C-67.83378643 233.35963991 -69.73506629 232.41431143 -71.63598633 231.46826172 C-72.6948555 230.94202209 -73.75372467 230.41578247 -74.84468079 229.87359619 C-79.02548484 227.74677097 -83.07165674 225.4228276 -87.11914062 223.05322266 C-89.54386719 221.63589844 -89.54386719 221.63589844 -92.01757812 220.18994141 C-93.63921875 219.23732422 -95.26085937 218.28470703 -96.93164062 217.30322266 C-98.51203125 216.38154297 -100.09242188 215.45986328 -101.72070312 214.51025391 C-110.13386209 209.59167997 -110.13386209 209.59167997 -113.93164062 207.30322266 C-114.98259918 206.86677429 -116.03355774 206.43032593 -117.11636353 205.98065186 C-119.93164062 203.30322266 -119.93164062 203.30322266 -120.65316772 197.62115479 C-120.67061011 195.17177806 -120.65450137 192.72203292 -120.61279297 190.27294922 C-120.61366913 188.93612595 -120.61454529 187.59930267 -120.615448 186.2219696 C-120.61126186 181.79533832 -120.5645538 177.37021484 -120.51757812 172.94384766 C-120.50638983 169.87799914 -120.49784792 166.81213992 -120.49185181 163.74627686 C-120.46892549 155.67074041 -120.40996654 147.59584983 -120.34362793 139.52056885 C-120.2822891 131.28284442 -120.25485457 123.0450158 -120.22460938 114.80712891 C-120.16022939 98.63887614 -120.0578017 82.47110307 -119.93164062 66.30322266 C-118.70214691 65.62168121 -117.4726532 64.94013977 -116.2059021 64.23794556 C-114.58962921 63.3411911 -112.97335632 62.44443665 -111.30810547 61.52050781 C-109.70736176 60.63271637 -108.10661804 59.74492493 -106.45736694 58.83023071 C-101.11554944 55.84754574 -95.82683303 52.78501882 -90.55664062 49.67822266 C-81.75511814 44.51745331 -72.92018082 39.41922141 -64.05664062 34.36572266 C-55.95292026 29.74539087 -47.85498097 25.11588461 -39.77783203 20.44921875 C-37.61109321 19.19814859 -35.44282795 17.94971787 -33.27294922 16.70410156 C-28.09834133 13.73087707 -22.95208973 10.72303998 -17.84960938 7.62744141 C-16.89175537 7.05541992 -15.93390137 6.48339844 -14.94702148 5.89404297 C-12.355633 4.34474635 -9.77599514 2.77584292 -7.19726562 1.20556641 C-2.93164062 -0.69677734 -2.93164062 -0.69677734 0 0 Z " fill="#1F6FD1" transform="translate(251.931640625,121.69677734375)"/>
</svg>
