<?xml version="1.0" encoding="UTF-8"?>
<svg version="1.1" xmlns="http://www.w3.org/2000/svg" width="500" height="500">
<path d="M0 0 C165 0 330 0 500 0 C500 165 500 330 500 500 C335 500 170 500 0 500 C0 335 0 170 0 0 Z " fill="#000000" transform="translate(0,0)"/>
<path d="M0 0 C0.89235352 0.52247314 1.78470703 1.04494629 2.70410156 1.58325195 C4.23357422 2.47270508 4.23357422 2.47270508 5.79394531 3.38012695 C7.42783203 4.34112305 7.42783203 4.34112305 9.09472656 5.3215332 C10.25193628 5.9965996 11.40949513 6.67106782 12.56738281 7.3449707 C14.97043239 8.74419125 17.37196576 10.14596256 19.77246094 11.54956055 C25.28259501 14.76852704 30.81483015 17.94918349 36.34472656 21.1340332 C38.50888121 22.38257142 40.6729434 23.63126988 42.83691406 24.88012695 C47.19538044 27.39472756 51.55484847 29.90757982 55.91503906 32.41918945 C58.09999564 33.67819862 60.28489176 34.93731273 62.46972656 36.1965332 C64.06989624 37.11873657 64.06989624 37.11873657 65.70239258 38.05957031 C74.2113338 42.96859971 82.69816859 47.91498957 91.16748047 52.89208984 C95.80336587 55.60760451 100.46192714 58.26376964 105.18286133 60.82910156 C106.15498062 61.35781357 107.12709991 61.88652557 108.12867737 62.43125916 C108.8599736 62.82817459 109.59126984 63.22509003 110.34472656 63.6340332 C110.55503707 81.39277308 110.71370819 99.15118951 110.81103611 116.91090584 C110.85743017 125.15725474 110.92067045 133.40282961 111.02368164 141.64868164 C111.11343195 148.83645548 111.17146044 156.02366878 111.19152302 163.21198738 C111.2032502 167.01796801 111.23077167 170.82234523 111.29629707 174.62781143 C111.3575097 178.21193274 111.37620973 181.79379497 111.36269569 185.37838936 C111.36634273 187.31699109 111.41471948 189.2553479 111.46450806 191.1933136 C111.37563569 199.53310063 111.37563569 199.53310063 108.41084099 202.69927597 C106.11335703 204.25565238 103.85744854 205.46476368 101.34472656 206.6340332 C100.02728899 207.41745557 98.71423744 208.20833667 97.40722656 209.0090332 C94.34472656 210.6340332 94.34472656 210.6340332 92.34472656 210.6340332 C92.36353945 209.94695251 92.38235233 209.25987181 92.40173531 208.55197048 C92.85207225 191.77321708 93.15607561 174.99867172 93.3006916 158.21462154 C93.37410231 150.09703392 93.4955502 141.9856662 93.73339844 133.87109375 C93.94079227 126.79124094 94.05469373 119.71683206 94.06006038 112.63384253 C94.06607129 108.88593137 94.11627933 105.15128701 94.27890396 101.40662956 C94.92875564 87.68780136 94.92875564 87.68780136 91.34472656 74.6340332 C85.17667364 67.9968465 77.03158775 64.53871367 68.78525925 61.14161873 C63.02717241 58.61851863 57.73463844 55.36071374 52.34472656 52.1340332 C50.18915392 50.88581693 48.03182646 49.6406218 45.87207031 48.3996582 C44.80069824 47.78155273 43.72932617 47.16344727 42.62548828 46.52661133 C39.283348 44.59862566 35.94101171 42.67098016 32.59863281 40.7434082 C31.48842773 40.10274414 30.37822266 39.46208008 29.234375 38.80200195 C27.03964995 37.53683025 24.84371089 36.27376186 22.64648438 35.01293945 C17.63107774 32.13119279 12.63965736 29.22251164 7.70019531 26.2121582 C6.83257568 25.68976563 5.96495605 25.16737305 5.07104492 24.62915039 C3.47349656 23.66460478 1.88374392 22.68696962 0.30395508 21.69360352 C-0.75094116 21.06083496 -0.75094116 21.06083496 -1.82714844 20.4152832 C-2.42624023 20.04467773 -3.02533203 19.67407227 -3.64257812 19.29223633 C-7.40000411 18.06346141 -10.64813984 19.16110619 -14.12695312 20.79467773 C-14.93551758 21.28049316 -15.74408203 21.76630859 -16.57714844 22.2668457 C-17.50640137 22.81783936 -18.4356543 23.36883301 -19.39306641 23.93652344 C-20.38709473 24.53795166 -21.38112305 25.13937988 -22.40527344 25.7590332 C-24.56887465 27.04496589 -26.73295345 28.3300953 -28.89746094 29.61450195 C-30.0134668 30.2801416 -31.12947266 30.94578125 -32.27929688 31.6315918 C-37.66780456 34.82775466 -43.09880358 37.94912783 -48.53027344 41.0715332 C-50.7061408 42.32529002 -52.8819215 43.57919725 -55.05761719 44.83325195 C-56.68352783 45.76983643 -56.68352783 45.76983643 -58.34228516 46.7253418 C-63.92698434 49.94281993 -69.50986761 53.16344463 -75.09277344 56.3840332 C-76.07294434 56.94920654 -77.05311523 57.51437988 -78.06298828 58.09667969 C-80.02781546 59.22995989 -81.9785119 60.38812442 -83.91363525 61.57141113 C-86.66089723 63.17741224 -89.42257891 64.34999189 -92.39364624 65.48426819 C-101.78270391 69.39366384 -101.78270391 69.39366384 -107.71891212 77.21458817 C-109.37592071 85.08228359 -108.83266275 93.10154563 -108.51074219 101.08325195 C-108.47526838 103.66817824 -108.44823971 106.253233 -108.42927551 108.83833313 C-108.3643638 114.92589926 -108.21501619 121.00589726 -108.02363521 127.09062368 C-107.81037496 134.02330673 -107.7065884 140.95632459 -107.61142194 147.89147699 C-107.41343858 162.14260868 -107.07594595 176.38784999 -106.65527344 190.6340332 C-101.37527344 193.6040332 -96.09527344 196.5740332 -90.65527344 199.6340332 C-90.67161331 198.22359741 -90.68795319 196.81316162 -90.70478821 195.35998535 C-90.85037969 182.05900199 -90.92822804 168.75906144 -90.93768024 155.45726776 C-90.9442683 148.61863009 -90.97498623 141.78171525 -91.06323242 134.94360352 C-91.14835101 128.34252802 -91.16527083 121.74352942 -91.1408596 115.14179993 C-91.14264967 112.62514899 -91.16718278 110.10840688 -91.2149601 107.59220886 C-91.55839079 88.38516077 -91.55839079 88.38516077 -88.40550423 83.82737923 C-84.97232221 80.61334058 -81.06560307 79.18744183 -76.65527344 77.6340332 C-74.61872967 76.49448133 -72.60037213 75.32103769 -70.61230469 74.09887695 C-68.56520524 72.92122048 -66.51699438 71.74549422 -64.46777344 70.5715332 C-62.19693654 69.26554982 -59.92610332 67.95956004 -57.65527344 66.65356445 C-56.4912687 65.98500684 -55.327206 65.31655014 -54.16308594 64.64819336 C-49.54475953 61.99664031 -44.92787039 59.34260328 -40.31298828 56.68505859 C-38.10342487 55.41289061 -35.89283106 54.14251039 -33.68115234 52.87402344 C-29.03289328 50.20025559 -24.40717538 47.51040211 -19.86621094 44.6574707 C-19.17229248 44.22418457 -18.47837402 43.79089844 -17.76342773 43.34448242 C-16.00401437 42.23565168 -14.2567189 41.10765325 -12.51074219 39.9777832 C-9.12975053 38.38672831 -8.17074307 38.64270098 -4.65527344 39.6340332 C-2.35717773 40.71875 -2.35717773 40.71875 0.02050781 42.08325195 C0.91809814 42.5942041 1.81568848 43.10515625 2.74047852 43.6315918 C3.70300537 44.18927246 4.66553223 44.74695313 5.65722656 45.3215332 C6.67196045 45.90241699 7.68669434 46.48330078 8.73217773 47.08178711 C17.88654567 52.33437408 26.99947107 57.65918553 36.10644531 62.9934082 C40.53615756 65.58467989 44.9771115 68.15535324 49.42675781 70.7121582 C50.01662979 71.05131256 50.60650177 71.39046692 51.21424866 71.73989868 C54.07241594 73.38285251 56.93185796 75.02348656 59.79321289 76.66088867 C60.82341553 77.25272949 61.85361816 77.84457031 62.91503906 78.4543457 C63.82012207 78.97270996 64.72520508 79.49107422 65.65771484 80.02514648 C66.98778564 80.82154541 66.98778564 80.82154541 68.34472656 81.6340332 C69.8809819 82.27990639 69.8809819 82.27990639 71.44827271 82.93882751 C74.79834742 86.05613609 74.83586609 86.80338847 75.21429443 91.19065857 C75.2989401 93.58161129 75.34987306 95.97389231 75.375 98.36621094 C75.4112146 99.67239883 75.4474292 100.97858673 75.48474121 102.32435608 C75.58047122 105.9073713 75.63568546 109.4898418 75.67758465 113.07385516 C75.70409835 115.31735487 75.73661133 117.56069692 75.77063751 119.80409431 C75.87418854 126.83649476 75.95042389 133.868502 75.99148917 140.90154594 C76.03945027 148.99708629 76.17944014 157.08409393 76.39949393 165.17674297 C76.56404318 171.44628712 76.64282463 177.71341711 76.65869546 183.98508221 C76.67014349 187.72547942 76.71683259 191.45708601 76.85417938 195.195158 C77.64144353 217.79915211 77.64144353 217.79915211 72.19455147 224.13520813 C66.96472919 228.37856522 61.22718667 231.10613676 54.98854256 233.55337334 C51.30828306 235.05767952 48.07234025 237.00438226 44.68457031 239.0793457 C42.55117658 240.30716156 40.4170941 241.53378171 38.28222656 242.7590332 C36.10362005 244.01125278 33.92522598 245.26384207 31.74707031 246.5168457 C30.824021 247.04681152 29.90097168 247.57677734 28.94995117 248.12280273 C27.15952542 249.16138725 25.38747863 250.23210855 23.63208008 251.32885742 C21.34472656 252.6340332 21.34472656 252.6340332 19.34472656 252.6340332 C19.35524331 251.94234354 19.36576006 251.25065388 19.3765955 250.53800392 C19.62706896 233.67709333 19.78285831 216.81820173 19.83438206 199.95556068 C19.86156306 191.80048959 19.92031496 183.64796775 20.05444336 175.49389648 C20.17132709 168.38324173 20.2279038 161.2750443 20.21326393 154.16340005 C20.20759076 150.39937655 20.23128482 146.64089548 20.32733345 142.87797928 C21.38778188 127.90765186 21.38778188 127.90765186 16.69868088 114.42827606 C12.75340585 110.96457393 8.41780216 109.02195805 3.46240044 107.41041183 C1.30270834 106.61862854 -0.40594959 105.61085089 -2.33152771 104.36343384 C-6.2777132 102.31016736 -7.43140349 102.64129027 -11.65527344 103.6340332 C-19.71540384 106.3326833 -27.82658062 110.35102254 -33.65527344 116.6340332 C-37.54902619 124.71638373 -36.63398899 134.18670585 -36.40136719 142.92700195 C-36.40349255 145.48523019 -36.41289781 148.04346171 -36.42921448 150.60163879 C-36.43905344 155.94656826 -36.37487359 161.28311022 -36.2487793 166.62597656 C-36.10459105 172.77977091 -36.09969435 178.92178817 -36.16937393 185.07661074 C-36.23372107 191.03171192 -36.20072683 196.98324835 -36.12483406 202.93834877 C-36.10101271 205.45590448 -36.10079385 207.97380311 -36.12512016 210.49135399 C-36.14489633 214.02030692 -36.05427289 217.530022 -35.93432617 221.05664062 C-35.97416122 222.59910461 -35.97416122 222.59910461 -36.01480103 224.17272949 C-35.97284695 227.6468009 -35.97284695 227.6468009 -33.65527344 232.6340332 C-28.04527344 235.9340332 -22.43527344 239.2340332 -16.65527344 242.6340332 C-16.65527344 203.6940332 -16.65527344 164.7540332 -16.65527344 124.6340332 C-9.65527344 120.6340332 -9.65527344 120.6340332 -6.53027344 120.6965332 C-3.44959002 121.70110388 -1.24111403 122.67196229 1.34472656 124.6340332 C1.9823122 127.16002464 1.9823122 127.16002464 1.99983215 130.23812866 C2.02748405 131.98782707 2.02748405 131.98782707 2.05569458 133.77287292 C2.05028656 135.05398453 2.04487854 136.33509613 2.03930664 137.6550293 C2.05099243 139.01681888 2.06476124 140.37859195 2.08045959 141.74034119 C2.11611302 145.44095474 2.1195718 149.14094251 2.11514878 152.84170103 C2.11396032 155.93069789 2.12739975 159.01956401 2.14053172 162.10852778 C2.17087911 169.3967447 2.17417526 176.68464185 2.16137695 183.97290039 C2.14869839 191.49134592 2.18385847 199.00850732 2.24226075 206.52670801 C2.29057167 212.98122407 2.30793545 219.43532869 2.3007862 225.89002097 C2.29690454 229.7453408 2.30503294 233.59969413 2.34339333 237.45484543 C2.37823187 241.08177471 2.37443293 244.70665116 2.34105492 248.3335743 C2.33252343 250.29716072 2.36348773 252.26079448 2.39562988 254.22413635 C2.26536729 262.60258714 2.26536729 262.60258714 -0.39083958 265.57848644 C-3.83460147 267.87149689 -5.66700349 268.791142 -9.82348633 268.13037109 C-10.75797607 267.63657959 -11.69246582 267.14278809 -12.65527344 266.6340332 C-13.52853271 266.18213623 -14.40179199 265.73023926 -15.30151367 265.26464844 C-16.18009033 264.74588135 -17.05866699 264.22711426 -17.96386719 263.69262695 C-18.95185303 263.11279053 -19.93983887 262.5329541 -20.95776367 261.93554688 C-22.50959351 261.01286011 -22.50959351 261.01286011 -24.09277344 260.0715332 C-25.1550415 259.44545166 -26.21730957 258.81937012 -27.31176758 258.17431641 C-30.4300343 256.33382233 -33.54333663 254.4852051 -36.65527344 252.6340332 C-37.5021875 252.13194336 -38.34910156 251.62985352 -39.22167969 251.11254883 C-41.34723671 249.85196044 -43.470883 248.58828184 -45.59277344 247.3215332 C-46.20628662 246.95535889 -46.8197998 246.58918457 -47.4519043 246.21191406 C-51.53234567 243.75696097 -51.53234567 243.75696097 -52.65527344 242.6340332 C-52.75161803 240.86243003 -52.77714825 239.08694912 -52.77552795 237.31272888 C-52.77758995 235.58155823 -52.77758995 235.58155823 -52.7796936 233.81541443 C-52.77430069 231.89923058 -52.77430069 231.89923058 -52.76879883 229.94433594 C-52.76851696 228.59445193 -52.76867469 227.24456776 -52.76924133 225.89468384 C-52.76952931 222.21922713 -52.7636326 218.54380277 -52.75666738 214.86835361 C-52.75043382 211.03130172 -52.74983004 207.19424916 -52.74864197 203.35719299 C-52.74552866 196.08632102 -52.73731527 188.81546401 -52.72729248 181.54459864 C-52.71613134 173.26903968 -52.71062089 164.99348002 -52.70559704 156.71791542 C-52.69513266 139.68994601 -52.67753322 122.66199119 -52.65527344 105.6340332 C-51.75213457 105.11830891 -51.75213457 105.11830891 -50.83075047 104.59216595 C-48.07431805 103.01800758 -45.31804164 101.44357624 -42.56176758 99.86914062 C-41.61466164 99.32831596 -40.66755569 98.7874913 -39.69174957 98.23027802 C-34.83740879 95.45713221 -29.98735253 92.67734954 -25.15136719 89.87231445 C-24.28962891 89.3740918 -23.42789063 88.87586914 -22.54003906 88.36254883 C-20.84014865 87.37897297 -19.1423786 86.39172706 -17.44628906 85.40161133 C-16.60646484 84.91756836 -15.76664062 84.43352539 -14.90136719 83.93481445 C-14.17618896 83.51369385 -13.45101074 83.09257324 -12.70385742 82.65869141 C-10.62508588 81.61893403 -8.96218757 80.93073502 -6.65527344 80.6340332 C-3.87764334 81.92461868 -1.34507931 83.27091261 1.28222656 84.8215332 C2.44757935 85.48971069 2.44757935 85.48971069 3.63647461 86.17138672 C5.31720567 87.13629707 6.99491112 88.10649226 8.66992188 89.08129883 C11.44598003 90.69281123 14.23335425 92.28303294 17.02441406 93.8684082 C20.65106065 95.92970334 24.27599413 97.99382789 27.89550781 100.06762695 C28.63454346 100.49100342 29.3735791 100.91437988 30.13500977 101.35058594 C30.86421631 101.77412354 31.59342285 102.19766113 32.34472656 102.6340332 C33.20359467 102.9288559 34.06246277 103.22367859 34.94735718 103.5274353 C37.34472656 105.6340332 37.34472656 105.6340332 37.79730129 107.75895405 C37.96435995 110.72454225 37.96206995 113.65301204 37.91235352 116.62304688 C37.91344872 118.32082527 37.91344872 118.32082527 37.91456604 120.05290222 C37.9110759 123.80308556 37.87214445 127.55203494 37.83300781 131.30200195 C37.82368484 133.89845603 37.8165663 136.49491888 37.81156921 139.09138489 C37.79441353 145.23264832 37.75498719 151.37340067 37.70482177 157.51447135 C37.64894893 164.50588068 37.62144711 171.49731116 37.59634459 178.48888814 C37.5440712 192.87084204 37.45611617 207.25242183 37.34472656 221.6340332 C37.8492334 221.33110352 38.35374023 221.02817383 38.87353516 220.71606445 C41.15291735 219.35085052 43.43624324 217.99237537 45.71972656 216.6340332 C46.91082031 215.91860352 46.91082031 215.91860352 48.12597656 215.1887207 C48.88652344 214.73754883 49.64707031 214.28637695 50.43066406 213.8215332 C51.13239746 213.40258789 51.83413086 212.98364258 52.55712891 212.55200195 C54.34472656 211.6340332 54.34472656 211.6340332 56.34472656 211.6340332 C56.01472656 173.3540332 55.68472656 135.0740332 55.34472656 95.6340332 C43.95972656 89.1990332 43.95972656 89.1990332 32.34472656 82.6340332 C28.14955976 80.20771532 23.96033072 77.77634777 19.78222656 75.3215332 C18.7904541 74.74395264 17.79868164 74.16637207 16.77685547 73.57128906 C12.47234362 71.06413053 8.17937156 68.5458885 3.93457031 65.9387207 C3.29398682 65.55240479 2.65340332 65.16608887 1.9934082 64.76806641 C0.37169758 63.78834336 -1.24000089 62.79209647 -2.85058594 61.79418945 C-6.35730212 60.34363972 -7.99189237 60.7636193 -11.65527344 61.6340332 C-14.36293273 62.86077496 -14.36293273 62.86077496 -17.01464844 64.4855957 C-18.03582764 65.08267334 -19.05700684 65.67975098 -20.10913086 66.29492188 C-21.19685791 66.94307861 -22.28458496 67.59123535 -23.40527344 68.2590332 C-25.13504712 69.27390434 -26.86482983 70.28876046 -28.59513855 71.30271912 C-30.39821874 72.36078275 -32.19896484 73.42273957 -33.99951172 74.48510742 C-39.92220961 77.97380904 -45.88515146 81.39296179 -51.84277344 84.8215332 C-53.96135282 86.04403385 -56.07984781 87.26668076 -58.19824219 88.48950195 C-61.25382378 90.25303124 -63.93334593 91.73325969 -67.2729187 92.92494202 C-69.21089276 93.93157545 -69.21089276 93.93157545 -70.65527344 95.6340332 C-71.75473297 99.91712697 -71.59710553 104.17182816 -71.54174805 108.57250977 C-71.54963789 109.91300518 -71.56059958 111.25348553 -71.57440186 112.59393311 C-71.60314056 116.23037269 -71.58889058 119.86552589 -71.5669601 123.50196552 C-71.55133399 127.30306706 -71.57518689 131.10391507 -71.59486389 134.90496826 C-71.62611383 142.10150853 -71.62182481 149.29757202 -71.60478932 156.49414229 C-71.58712264 164.68764732 -71.60904126 172.88089653 -71.6342963 181.07436419 C-71.68535651 197.92769011 -71.68666877 214.78066337 -71.65527344 231.6340332 C-73.55741924 230.69045046 -75.4586991 229.74512197 -77.35961914 228.79907227 C-78.41848831 228.27283264 -79.47735748 227.74659302 -80.5683136 227.20440674 C-84.74989784 225.07718463 -88.80137859 222.76409793 -92.84277344 220.3840332 C-93.64158936 219.91731201 -94.44040527 219.45059082 -95.26342773 218.96972656 C-96.91165019 218.00586803 -98.55887323 217.04029839 -100.20507812 216.07299805 C-102.61535057 214.65747933 -105.02936702 213.24855252 -107.44433594 211.84106445 C-108.95232181 210.95985066 -110.46014155 210.07835249 -111.96777344 209.1965332 C-112.65444092 208.79595703 -113.3411084 208.39538086 -114.04858398 207.98266602 C-114.69867432 207.60078125 -115.34876465 207.21889648 -116.01855469 206.82543945 C-116.57841064 206.49745361 -117.1382666 206.16946777 -117.71508789 205.83154297 C-118.67547974 205.23877563 -118.67547974 205.23877563 -119.65527344 204.6340332 C-121.17922478 204.01010933 -121.17922478 204.01010933 -122.73396301 203.37358093 C-125.10041787 201.76439466 -125.59433 200.91906167 -126.20114231 198.08104038 C-126.39792936 194.57558862 -126.39621292 191.11441227 -126.33642578 187.60375977 C-126.33473293 186.253434 -126.33568413 184.90310271 -126.33908081 183.55278015 C-126.34080257 179.88942658 -126.30552591 176.22725143 -126.26363707 172.56417179 C-126.22613176 168.73520443 -126.22260491 164.90621011 -126.21548462 161.0770874 C-126.19683499 153.8273115 -126.14759703 146.57807839 -126.08738768 139.32854152 C-126.02032566 131.07475272 -125.98733443 122.82093801 -125.95721507 114.5669446 C-125.89449755 97.58899348 -125.78896095 80.61157073 -125.65527344 63.6340332 C-124.88467874 63.20694785 -124.88467874 63.20694785 -124.09851646 62.77123451 C-121.74262506 61.46513371 -119.38717886 60.158232 -117.03173828 58.85131836 C-116.22369247 58.40349503 -115.41564667 57.95567169 -114.58311462 57.49427795 C-108.43305408 54.0808332 -102.3396579 50.58106074 -96.28027344 47.0090332 C-87.47886721 41.84833202 -78.64401093 36.74924448 -69.78027344 31.6965332 C-61.67645993 27.07635293 -53.5786466 22.44671412 -45.50146484 17.7800293 C-43.33472602 16.52895913 -41.16646076 15.28052841 -38.99658203 14.03491211 C-33.82197414 11.06168762 -28.67572254 8.05385053 -23.57324219 4.95825195 C-22.61538818 4.38623047 -21.65753418 3.81420898 -20.6706543 3.22485352 C-18.87886055 2.15360542 -17.09635602 1.06660094 -15.32543945 -0.03881836 C-14.53194092 -0.50900391 -13.73844238 -0.97918945 -12.92089844 -1.46362305 C-12.23801758 -1.88135986 -11.55513672 -2.29909668 -10.8515625 -2.72949219 C-6.81373227 -3.89963708 -3.5744556 -1.83882669 0 0 Z " fill="#1F6FD1" transform="translate(257.6552734375,124.365966796875)"/>
</svg>
